# xmcd
#
# Track frame offsets:
#	150
#	11624
#	24148
#	38697
#	49421
#	58720
#	72444
#	88418
#	100042
#	117216
#	131615
#	154339
#
# Disc length: 2247 seconds
#
# Revision: 0
# Processed by: cddbd v1.5.2PL0 Copyright (c) Steve Scherf et al.
# Submitted via: VUPlayer 2.41
#
DISCID=9d08c50c
DTITLE=Donna Wylde - The Way That I AM
DYEAR=2007
DGENRE=Country
TTITLE0=MY BABY LOVES ME(JUST THE WAY I AM0
TTITLE1=BLUE
TTITLE2=I CAN'T BOTHERED
TTITLE3=DANCE WITH THE ONE THAT BROUGHT YOU
TTITLE4=FOOLIN' AROUND
TTITLE5=JONES ON THE JUKEBOX
TTITLE6=NO PLACE THAT FAR
TTITLE7=PICK ME UP ON YOUR WAY DOWN
TTITLE8=SUDS IN THE BUCKET
TTITLE9=TIPPERARY ON MY MIND
TTITLE10=TODAY I STARTED LOVING YOU AGAIN
TTITLE11=UNLOVE ME
EXTD=
EXTT0=
EXTT1=
EXTT2=
EXTT3=
EXTT4=
EXTT5=
EXTT6=
EXTT7=
EXTT8=
EXTT9=
EXTT10=
EXTT11=
PLAYORDER=
